<?xml version="1.0" encoding="utf-8"?>
<!-- Generator: Adobe Illustrator 24.0.1, SVG Export Plug-In . SVG Version: 6.00 Build 0)  -->
<svg version="1.1" id="Layer_1" xmlns="http://www.w3.org/2000/svg" xmlns:xlink="http://www.w3.org/1999/xlink" x="0px" y="0px"
	 viewBox="0 0 1000 349.76" style="enable-background:new 0 0 1000 349.76;" xml:space="preserve">
<style type="text/css">
	.st0{fill:#FFFFFF;}
</style>
<g>
	<path class="st0" d="M305.44,140.06c0-22.88,17.82-39.83,42.14-39.83c24.2,0,42.14,16.83,42.14,39.83
		c0,22.99-17.93,39.83-42.14,39.83C323.26,179.89,305.44,162.94,305.44,140.06z M371.67,140.06c0-14.63-10.34-24.64-24.09-24.64
		s-24.09,10.01-24.09,24.64c0,14.63,10.34,24.64,24.09,24.64S371.67,154.69,371.67,140.06z"/>
	<path class="st0" d="M399.83,101.55h14.63l-1.21,31.24h-12.32L399.83,101.55z"/>
	<path class="st0" d="M431.18,101.55h34.98c25.19,0,42.47,15.18,42.47,38.51c0,23.32-17.27,38.51-42.47,38.51h-34.98V101.55z
		 M465.29,163.93c15.29,0,25.3-9.13,25.3-23.87s-10.01-23.87-25.3-23.87h-16.28v47.75H465.29z"/>
	<path class="st0" d="M518.75,148.97c0-17.82,13.75-30.47,32.56-30.47c18.81,0,32.46,12.65,32.46,30.47s-13.64,30.47-32.46,30.47
		C532.5,179.45,518.75,166.79,518.75,148.97z M566.39,148.97c0-10.23-6.49-16.39-15.07-16.39c-8.58,0-15.18,6.16-15.18,16.39
		s6.6,16.39,15.18,16.39C559.9,165.36,566.39,159.2,566.39,148.97z"/>
	<path class="st0" d="M658.03,144.68v33.88h-17.16v-31.24c0-9.57-4.4-13.97-11.99-13.97c-8.25,0-14.19,5.06-14.19,15.95v29.26
		h-17.16v-59.19h16.39v6.93c4.62-5.06,11.55-7.81,19.58-7.81C647.47,118.5,658.03,126.64,658.03,144.68z"/>
	<path class="st0" d="M736.36,144.68v33.88h-17.16v-31.24c0-9.57-4.4-13.97-11.99-13.97c-8.25,0-14.19,5.06-14.19,15.95v29.26
		h-17.16v-59.19h16.39v6.93c4.62-5.06,11.55-7.81,19.58-7.81C725.8,118.5,736.36,126.64,736.36,144.68z"/>
	<path class="st0" d="M812.48,153.81h-44.78c1.65,7.37,7.92,11.88,16.94,11.88c6.27,0,10.78-1.87,14.85-5.72l9.13,9.9
		c-5.5,6.27-13.75,9.57-24.42,9.57c-20.46,0-33.77-12.87-33.77-30.47c0-17.71,13.53-30.47,31.57-30.47
		c17.38,0,30.8,11.66,30.8,30.69C812.81,150.51,812.59,152.38,812.48,153.81z M767.49,143.8h29.15
		c-1.21-7.48-6.82-12.32-14.52-12.32C774.31,131.48,768.7,136.21,767.49,143.8z"/>
	<path class="st0" d="M826.56,96.93h17.16v81.63h-17.16V96.93z"/>
	<path class="st0" d="M861.99,96.93h17.16v81.63h-17.16V96.93z"/>
</g>
<g>
	<path class="st0" d="M340.17,256.8l-5.28-4.9c-4.02,3.14-9.05,4.9-14.7,4.9c-9.68,0-16.78-5.03-16.78-12.06
		c0-5.53,2.95-9.36,9.68-13.13c-3.2-3.33-4.52-6.16-4.52-9.3c0-6.41,5.4-10.81,13.7-10.81c7.6,0,12.63,3.9,12.63,10.12
		c0,4.52-2.64,7.85-8.61,11.12l8.04,7.48c0.94-1.95,1.7-4.27,2.2-6.85l7.85,2.45c-0.82,3.77-2.14,7.16-4.02,9.99l5.15,4.78
		L340.17,256.8z M329.11,246.56l-10.62-9.93c-4.02,2.32-5.47,4.34-5.47,7.04c0,3.2,3.02,5.47,7.85,5.47
		C323.9,249.13,326.72,248.25,329.11,246.56z M317.49,222.18c0,1.7,0.69,2.95,3.39,5.59c4.34-2.33,5.72-3.96,5.72-5.97
		c0-2.14-1.51-3.64-4.34-3.64C319.25,218.15,317.49,219.85,317.49,222.18z"/>
	<path class="st0" d="M401.49,246.62h-20.42l-3.9,9.43h-10.43l19.6-43.98h10.05l19.67,43.98h-10.68L401.49,246.62z M398.28,238.89
		l-6.97-16.84l-6.98,16.84H398.28z"/>
	<path class="st0" d="M417.69,252.9l3.27-7.04c3.02,1.95,7.6,3.27,11.75,3.27c4.52,0,6.22-1.19,6.22-3.08
		c0-5.53-20.42,0.13-20.42-13.38c0-6.41,5.78-10.93,15.65-10.93c4.65,0,9.8,1.07,13.01,2.95l-3.27,6.97
		c-3.33-1.88-6.66-2.51-9.74-2.51c-4.4,0-6.28,1.38-6.28,3.14c0,5.78,20.42,0.19,20.42,13.51c0,6.28-5.84,10.75-15.96,10.75
		C426.62,256.55,420.84,254.98,417.69,252.9z"/>
	<path class="st0" d="M452.37,252.9l3.27-7.04c3.02,1.95,7.6,3.27,11.75,3.27c4.52,0,6.22-1.19,6.22-3.08
		c0-5.53-20.42,0.13-20.42-13.38c0-6.41,5.78-10.93,15.65-10.93c4.65,0,9.8,1.07,13.01,2.95l-3.27,6.97
		c-3.33-1.88-6.66-2.51-9.74-2.51c-4.4,0-6.28,1.38-6.28,3.14c0,5.78,20.42,0.19,20.42,13.51c0,6.28-5.84,10.75-15.96,10.75
		C461.3,256.55,455.52,254.98,452.37,252.9z"/>
	<path class="st0" d="M487.81,239.14c0-10.18,7.85-17.41,18.6-17.41c10.75,0,18.54,7.23,18.54,17.41s-7.79,17.41-18.54,17.41
		C495.66,256.55,487.81,249.32,487.81,239.14z M515.02,239.14c0-5.84-3.71-9.36-8.61-9.36c-4.9,0-8.67,3.52-8.67,9.36
		s3.77,9.36,8.67,9.36C511.31,248.5,515.02,244.99,515.02,239.14z"/>
	<path class="st0" d="M530.28,239.14c0-10.18,7.85-17.41,18.85-17.41c7.1,0,12.69,3.08,15.14,8.61l-7.6,4.08
		c-1.82-3.21-4.52-4.65-7.6-4.65c-4.96,0-8.86,3.46-8.86,9.36s3.9,9.36,8.86,9.36c3.08,0,5.78-1.38,7.6-4.65l7.6,4.15
		c-2.45,5.4-8.04,8.55-15.14,8.55C538.14,256.55,530.28,249.32,530.28,239.14z"/>
	<path class="st0" d="M570.05,212.06c0-3.08,2.45-5.47,6.1-5.47s6.1,2.26,6.1,5.28c0,3.27-2.45,5.66-6.1,5.66
		S570.05,215.14,570.05,212.06z M571.24,222.24h9.8v33.81h-9.8V222.24z"/>
	<path class="st0" d="M621.38,236.75v19.29h-9.17v-4.21c-1.82,3.08-5.34,4.71-10.3,4.71c-7.92,0-12.63-4.4-12.63-10.24
		c0-5.97,4.21-10.12,14.52-10.12h7.79c0-4.21-2.51-6.66-7.79-6.66c-3.58,0-7.29,1.19-9.74,3.14l-3.52-6.85
		c3.71-2.64,9.17-4.08,14.58-4.08C615.41,221.74,621.38,226.51,621.38,236.75z M611.58,245.36v-3.46h-6.72
		c-4.59,0-6.03,1.7-6.03,3.96c0,2.45,2.07,4.08,5.53,4.08C607.62,249.95,610.45,248.44,611.58,245.36z"/>
	<path class="st0" d="M653.36,254.41c-2.01,1.45-4.96,2.14-7.98,2.14c-7.98,0-12.63-4.08-12.63-12.13v-13.89h-5.22v-7.54h5.22v-8.23
		h9.8v8.23h8.42v7.54h-8.42v13.76c0,2.89,1.57,4.46,4.21,4.46c1.45,0,2.89-0.44,3.96-1.26L653.36,254.41z"/>
	<path class="st0" d="M692.07,241.91h-25.57c0.94,4.21,4.52,6.79,9.68,6.79c3.58,0,6.16-1.07,8.48-3.27l5.22,5.66
		c-3.14,3.58-7.85,5.47-13.95,5.47c-11.69,0-19.29-7.35-19.29-17.41c0-10.12,7.73-17.41,18.03-17.41c9.93,0,17.59,6.66,17.59,17.53
		C692.25,240.02,692.13,241.09,692.07,241.91z M666.37,236.19h16.65c-0.69-4.27-3.9-7.04-8.29-7.04
		C670.26,229.15,667.06,231.85,666.37,236.19z"/>
	<path class="st0" d="M696.84,252.9l3.27-7.04c3.02,1.95,7.6,3.27,11.75,3.27c4.52,0,6.22-1.19,6.22-3.08
		c0-5.53-20.42,0.13-20.42-13.38c0-6.41,5.78-10.93,15.65-10.93c4.65,0,9.8,1.07,13.01,2.95l-3.27,6.97
		c-3.33-1.88-6.66-2.51-9.74-2.51c-4.4,0-6.28,1.38-6.28,3.14c0,5.78,20.42,0.19,20.42,13.51c0,6.28-5.84,10.75-15.96,10.75
		C705.76,256.55,699.98,254.98,696.84,252.9z"/>
	<path class="st0" d="M744.59,250.39c0,1.63-0.25,2.83-1.7,6.28l-3.58,9.05h-6.22l2.76-9.99c-2.07-0.82-3.39-2.77-3.39-5.34
		c0-3.64,2.64-6.03,6.1-6.03C742.07,244.36,744.59,246.81,744.59,250.39z"/>
	<path class="st0" d="M772.35,212.06h10.18v43.98h-10.18V212.06z"/>
	<path class="st0" d="M828.15,236.69v19.35h-9.8V238.2c0-5.47-2.51-7.98-6.85-7.98c-4.71,0-8.11,2.89-8.11,9.11v16.71h-9.8v-33.81
		h9.36v3.96c2.64-2.89,6.6-4.46,11.18-4.46C822.12,221.74,828.15,226.39,828.15,236.69z"/>
	<path class="st0" d="M836.19,239.14c0-10.18,7.85-17.41,18.85-17.41c7.1,0,12.69,3.08,15.14,8.61l-7.6,4.08
		c-1.82-3.21-4.52-4.65-7.6-4.65c-4.96,0-8.86,3.46-8.86,9.36s3.9,9.36,8.86,9.36c3.08,0,5.78-1.38,7.6-4.65l7.6,4.15
		c-2.45,5.4-8.04,8.55-15.14,8.55C844.04,256.55,836.19,249.32,836.19,239.14z"/>
	<path class="st0" d="M876.02,250.39c0-3.64,2.7-6.03,6.09-6.03s6.09,2.39,6.09,6.03c0,3.58-2.7,6.16-6.09,6.16
		S876.02,253.97,876.02,250.39z"/>
</g>
<g>
	<rect x="111.79" y="192.38" class="st0" width="147.19" height="20.22"/>
</g>
<g>
	<rect x="135.69" y="238.82" class="st0" width="99.39" height="20.22"/>
</g>
<g>
	<path class="st0" d="M184.83,193.76c-0.01,0-0.02,0-0.02,0c-1.89-0.01-3.66-0.9-4.79-2.42l-66.85-89.89
		c-1.35-1.82-1.57-4.25-0.55-6.27c1.02-2.03,3.09-3.31,5.36-3.31H252.8c2.28,0,4.36,1.29,5.37,3.33s0.79,4.48-0.59,6.29
		l-67.98,89.89C188.48,192.88,186.71,193.76,184.83,193.76z M129.91,103.88l54.95,73.89l55.88-73.89H129.91z"/>
</g>
</svg>
