<?xml version="1.0" encoding="utf-8"?>
<!-- Generator: Adobe Illustrator 24.0.1, SVG Export Plug-In . SVG Version: 6.00 Build 0)  -->
<svg version="1.1" id="Layer_1" xmlns="http://www.w3.org/2000/svg" xmlns:xlink="http://www.w3.org/1999/xlink" x="0px" y="0px"
	 viewBox="60 20 250 300" style="enable-background:new 60 20 250 320;" xml:space="preserve">
<style type="text/css">
	.st0{fill:#FFFFFF;}
	.st1{fill:#000000;}
</style>
<g>
	<rect x="0" y="0" class="st1" width="500" height="500"/>
</g>
<g>
	<rect x="111.79" y="192.38" class="st0" width="147.19" height="20.22"/>
</g>
<g>
	<rect x="135.69" y="238.82" class="st0" width="99.39" height="20.22"/>
</g>
<g>
	<path class="st0" d="M184.83,193.76c-0.01,0-0.02,0-0.02,0c-1.89-0.01-3.66-0.9-4.79-2.42l-66.85-89.89
		c-1.35-1.82-1.57-4.25-0.55-6.27c1.02-2.03,3.09-3.31,5.36-3.31H252.8c2.28,0,4.36,1.29,5.37,3.33s0.79,4.48-0.59,6.29
		l-67.98,89.89C188.48,192.88,186.71,193.76,184.83,193.76z M129.91,103.88l54.95,73.89l55.88-73.89H129.91z"/>
</g>
</svg>
